<!-- Generated by IcoMoon.io -->
<svg version="1.1" xmlns="http://www.w3.org/2000/svg" width="26" height="32" viewBox="0 0 26 32">
<title>photo_2022-04-27_09-33-32</title>
<path d="M11.47 1.326c-0.745 0.101-0.975 0.147-1.632 0.331-3.113 0.869-5.729 2.984-7.214 5.834-1.885 3.609-1.664 8.074 0.566 11.471 1.090 1.664 2.575 3.030 4.303 3.945 3.011 1.595 6.69 1.788 9.862 0.51 3.618-1.457 6.285-4.63 7.030-8.368 0.152-0.759 0.202-1.338 0.202-2.207 0-0.874-0.051-1.439-0.202-2.23-0.336-1.788-1.117-3.494-2.285-5.011-0.372-0.483-1.324-1.439-1.844-1.857-1.559-1.246-3.448-2.078-5.453-2.4-0.74-0.12-2.556-0.129-3.333-0.018zM14.873 2.154c2.207 0.391 4.156 1.398 5.729 2.966 0.616 0.612 0.975 1.048 1.416 1.715 1.292 1.959 1.908 4.28 1.77 6.644-0.041 0.745-0.101 1.131-0.28 1.867-0.566 2.34-2.018 4.501-4.014 5.982-1.531 1.136-3.255 1.821-5.218 2.078-0.566 0.074-2.060 0.069-2.621-0.005-2.428-0.326-4.556-1.343-6.271-2.993-2.152-2.069-3.329-4.97-3.232-7.977 0.055-1.623 0.386-2.984 1.071-4.377 0.543-1.103 1.26-2.087 2.184-2.979 1.697-1.637 3.903-2.685 6.308-2.989 0.782-0.097 2.414-0.064 3.159 0.069z"></path>
<path d="M16.519 4.517c-0.069 0.037-0.713 0.474-1.425 0.975-1.903 1.329-5.664 3.963-7.094 4.97-0.68 0.478-1.356 0.952-1.494 1.048-1.499 1.048-1.609 1.145-1.678 1.412-0.051 0.198 0.097 0.432 0.409 0.653 0.152 0.11 0.634 0.418 1.062 0.685 0.432 0.271 1.366 0.855 2.078 1.306 4.809 3.025 8.060 5.057 8.207 5.131 0.097 0.051 0.239 0.078 0.34 0.069 0.143-0.009 0.193-0.041 0.271-0.175 0.092-0.161 0.092-0.184 0.092-7.931 0-7.554-0.005-7.775-0.087-7.931-0.051-0.087-0.12-0.184-0.161-0.216-0.101-0.078-0.368-0.074-0.52 0.005z"></path>
<path d="M9.217 25.832l-0.092 0.184h0.147c0.11 0 0.207-0.051 0.359-0.184l0.207-0.179-0.262-0.005c-0.262 0-0.267 0-0.359 0.184z"></path>
<path d="M12.206 25.832c0.152 0.133 0.248 0.184 0.359 0.184h0.147l-0.092-0.184c-0.092-0.184-0.097-0.184-0.359-0.184l-0.262 0.005 0.207 0.179z"></path>
<path d="M16.988 25.832c0.147 0.129 0.248 0.179 0.359 0.184h0.147l-0.092-0.184c-0.092-0.184-0.097-0.184-0.359-0.184l-0.262 0.005 0.207 0.179z"></path>
<path d="M7.516 25.924v0.23h-0.276c-0.156 0-0.336 0.028-0.405 0.064-0.556 0.29-0.547 1.131 0.018 1.407 0.156 0.078 0.28 0.092 0.837 0.092h0.653l-0.009-1.002-0.014-0.998-0.805-0.028v0.234zM7.507 26.967c0.014 0.17 0 0.198-0.078 0.198-0.097 0-0.234-0.115-0.234-0.189 0-0.12 0.106-0.23 0.198-0.216 0.083 0.009 0.106 0.051 0.115 0.207z"></path>
<path d="M10.988 25.804c-0.115 0.175-0.023 0.313 0.198 0.294 0.147-0.014 0.17-0.032 0.184-0.143 0.032-0.257-0.244-0.363-0.382-0.152z"></path>
<path d="M19.608 26.338v0.276h-0.552v0.414h0.552v0.552h0.414v-0.552h0.552v-0.414h-0.552v-0.552h-0.414v0.276z"></path>
<path d="M8.932 26.2c-0.28 0.152-0.382 0.336-0.382 0.717 0 0.28 0.018 0.345 0.124 0.487 0.069 0.087 0.202 0.198 0.299 0.248 0.184 0.087 0.584 0.115 0.805 0.051 0.193-0.051 0.451-0.299 0.451-0.428s0.009-0.129-0.211-0.037c-0.101 0.041-0.23 0.060-0.313 0.046-0.138-0.028-0.303-0.147-0.303-0.221 0-0.018 0.188-0.037 0.414-0.037 0.299 0 0.414-0.014 0.414-0.060 0-0.124-0.11-0.432-0.198-0.556-0.202-0.285-0.759-0.391-1.099-0.212zM9.682 26.646c0.037 0.101 0.028 0.106-0.17 0.106-0.115 0-0.198-0.014-0.188-0.037 0.009-0.018 0.032-0.069 0.046-0.115 0.046-0.12 0.262-0.087 0.313 0.046z"></path>
<path d="M12.183 26.158c-0.363 0.046-0.483 0.12-0.487 0.303-0.005 0.083-0.009 0.189-0.009 0.23-0.005 0.051 0.023 0.074 0.060 0.064 0.336-0.092 0.446-0.101 0.566-0.055 0.161 0.064 0.175 0.202 0.009 0.161-0.34-0.083-0.667 0.143-0.667 0.464 0 0.267 0.161 0.414 0.437 0.409 0.115 0 0.234-0.028 0.271-0.060 0.046-0.037 0.074-0.041 0.097-0.005 0.014 0.023 0.193 0.046 0.418 0.046h0.386v-0.566c0-0.607-0.055-0.786-0.285-0.91-0.143-0.078-0.515-0.12-0.795-0.083zM12.436 27.257c0 0.115-0.018 0.138-0.115 0.138-0.064 0-0.129-0.032-0.143-0.069-0.037-0.092 0.060-0.207 0.17-0.207 0.064 0 0.087 0.032 0.087 0.138z"></path>
<path d="M10.597 26.761c0 0.317-0.014 0.611-0.028 0.653-0.018 0.046-0.083 0.074-0.161 0.074h-0.133v0.634l0.175 0.032c0.271 0.046 0.584-0.055 0.74-0.23 0.175-0.202 0.234-0.497 0.234-1.186v-0.561h-0.828v0.584z"></path>
<path d="M14.247 26.227c0.014 0.037 0.166 0.391 0.331 0.782l0.303 0.708h0.313c0.29 0 0.308-0.005 0.363-0.129 0.133-0.285 0.602-1.384 0.602-1.407 0-0.014-0.184-0.028-0.409-0.028h-0.409l-0.055 0.161c-0.028 0.087-0.069 0.161-0.092 0.161s-0.064-0.074-0.092-0.161l-0.055-0.161h-0.414c-0.359 0-0.409 0.009-0.386 0.074z"></path>
<path d="M16.298 26.802v0.648l0.129 0.129c0.189 0.189 0.414 0.221 0.676 0.092 0.115-0.055 0.207-0.12 0.207-0.143s0.023-0.041 0.046-0.041c0.028 0 0.046 0.051 0.046 0.115 0 0.115 0.005 0.115 0.391 0.115h0.391v-1.563h-0.823l-0.014 0.487c-0.014 0.414-0.028 0.501-0.097 0.543-0.152 0.092-0.216-0.074-0.216-0.579v-0.451h-0.736v0.648z"></path>
<path d="M8.62 29.28v1.012h0.828v-2.023h-0.828v1.012z"></path>
<path d="M13.539 29.28v1.012h0.588c0.322 0 0.662-0.023 0.754-0.046 0.694-0.193 0.782-1.163 0.138-1.476-0.156-0.078-0.253-0.092-0.428-0.074l-0.225 0.028v-0.455h-0.828v1.012zM14.643 29.395c0.092 0.11-0.014 0.299-0.161 0.299-0.106 0-0.115-0.018-0.115-0.184 0-0.161 0.014-0.184 0.11-0.184 0.060 0 0.133 0.032 0.166 0.069z"></path>
<path d="M19.332 29.28v1.012h0.828v-0.395c0-0.363 0.005-0.391 0.078-0.336 0.11 0.092 0.198 0.336 0.198 0.547v0.184h0.841l-0.028-0.257c-0.018-0.175-0.074-0.336-0.166-0.483-0.12-0.193-0.129-0.225-0.069-0.276 0.092-0.074 0.184-0.257 0.225-0.446l0.032-0.147h-0.828l-0.032 0.147c-0.037 0.175-0.143 0.359-0.207 0.359-0.028 0-0.046-0.193-0.046-0.46v-0.46h-0.828v1.012z"></path>
<path d="M18.16 28.678c-0.483 0.12-0.754 0.57-0.621 1.044 0.106 0.377 0.441 0.57 0.988 0.57 0.478 0 0.483-0.005 0.483-0.386v-0.331l-0.322 0.018c-0.267 0.018-0.326 0.005-0.349-0.055-0.014-0.041 0-0.106 0.032-0.147 0.060-0.074 0.276-0.069 0.538 0.009 0.097 0.028 0.101 0.018 0.101-0.317v-0.345l-0.23-0.051c-0.257-0.055-0.414-0.060-0.621-0.009z"></path>
<path d="M6.459 29.717v1.034h0.828v-0.483h0.313c0.363 0 0.547-0.101 0.68-0.377 0.106-0.221 0.11-0.63 0.005-0.828-0.161-0.308-0.575-0.464-0.855-0.322-0.12 0.060-0.143 0.060-0.143 0.005 0-0.051-0.087-0.064-0.414-0.064h-0.414v1.034zM7.512 29.367c0.032 0.023 0.064 0.097 0.064 0.166 0 0.23-0.257 0.28-0.28 0.055-0.028-0.234 0.055-0.322 0.216-0.221z"></path>
<path d="M10.123 28.728c-0.322 0.083-0.354 0.115-0.354 0.372 0 0.207 0.009 0.23 0.083 0.202 0.041-0.018 0.184-0.046 0.308-0.055 0.193-0.018 0.244-0.009 0.317 0.074l0.087 0.097h-0.239c-0.368 0-0.602 0.179-0.602 0.464 0 0.115 0.083 0.276 0.179 0.349 0.092 0.074 0.395 0.074 0.524 0.009 0.074-0.041 0.101-0.041 0.115 0 0.009 0.032 0.161 0.051 0.432 0.051h0.414l-0.018-0.566c-0.018-0.634-0.069-0.782-0.303-0.92-0.179-0.106-0.671-0.143-0.943-0.078zM10.542 29.818c-0.009 0.101-0.037 0.129-0.129 0.129s-0.12-0.028-0.129-0.129c-0.014-0.11 0-0.124 0.129-0.124s0.143 0.014 0.129 0.124z"></path>
<path d="M11.438 28.738c0.014 0.032 0.143 0.322 0.28 0.639l0.257 0.584-0.161 0.382c-0.087 0.212-0.161 0.391-0.161 0.4 0 0.005 0.198 0.005 0.441 0l0.446-0.014 0.349-0.828c0.198-0.455 0.391-0.915 0.432-1.025l0.078-0.193h-0.814l-0.060 0.184c-0.032 0.101-0.074 0.184-0.092 0.184s-0.069-0.083-0.115-0.184l-0.083-0.184h-0.414c-0.308 0-0.405 0.014-0.386 0.055z"></path>
<path d="M16.114 28.71c-0.469 0.152-0.46 0.147-0.46 0.395 0 0.221 0.005 0.23 0.106 0.202 0.216-0.069 0.483-0.083 0.579-0.032 0.156 0.087 0.11 0.143-0.12 0.143-0.29 0-0.432 0.078-0.533 0.285-0.074 0.152-0.078 0.184-0.014 0.326 0.101 0.248 0.349 0.331 0.644 0.216 0.078-0.028 0.12-0.028 0.12 0s0.175 0.046 0.418 0.046h0.418l-0.018-0.616c-0.014-0.616-0.014-0.621-0.147-0.759-0.078-0.078-0.212-0.166-0.299-0.189-0.17-0.046-0.57-0.055-0.694-0.018zM16.436 29.832c0 0.138-0.051 0.17-0.202 0.11-0.074-0.028-0.101-0.161-0.041-0.216 0.014-0.018 0.078-0.032 0.138-0.032 0.087 0 0.106 0.023 0.106 0.138z"></path>
</svg>
